<svg width="25" height="34" viewBox="-10 -10 47 54" fill="none" xmlns="http://www.w3.org/2000/svg">
<path d="M9.58655 0.509725C6.44797 0.528783 5.92832 2.94278 5.92832 2.94278L5.07494 3.24771C5.07494 3.24771 3.14254 1.7072 0.701599 3.67969C0.838266 3.53676 2.77544 1.59126 5.34669 2.66168C6.65774 0.204798 9.38949 0.484314 9.58655 0.509725Z" fill="url(#paint0_linear_20_100)"/>
<path d="M15.8924 2.46485C13.2767 2.48073 12.8428 4.49293 12.8428 4.49293L12.1325 4.74703C12.1325 4.74703 10.5227 3.4638 8.48854 5.10596C8.60296 4.98684 10.2175 3.36533 12.3597 4.25788C13.4531 2.21074 15.7287 2.4442 15.8924 2.46485Z" fill="url(#paint1_linear_20_100)"/>
<path d="M8.11339 7.98381C5.53579 7.99969 5.1099 9.98171 5.1099 9.98171L4.40908 10.2311C4.40908 10.2311 2.82311 8.96688 0.817596 10.5852C0.930426 10.4677 2.52117 8.87 4.63156 9.74984C5.70901 7.73288 7.9513 7.96316 8.11339 7.98381Z" fill="url(#paint2_linear_20_100)"/>
<path d="M15.1659 24.5798C14.4095 24.7196 13.7659 24.6259 13.1636 24.3257C12.7933 24.1415 12.4437 24.1034 12.0766 24.3067C11.5029 24.6227 10.88 24.6958 10.2427 24.6227C9.97733 24.5925 9.69287 24.5258 9.4688 24.3908C9.02543 24.124 8.59159 24.1256 8.16411 24.3591C7.57453 24.6815 6.93252 24.7244 6.32228 24.5925C6.03464 24.5306 5.75654 24.1669 5.58492 23.8747C4.41053 21.8847 3.99417 19.728 4.20076 17.4331C4.27863 16.5771 4.54879 15.7894 4.81894 14.981C5.15425 13.9757 5.66119 13.0911 6.29209 12.2589C7.35046 10.8613 8.67899 9.81473 10.2761 9.08576C12.1576 8.22816 14.1409 8.0884 16.1464 8.30439C16.9299 8.38856 17.68 8.7586 18.4475 8.98888C19.4582 9.29381 20.3132 9.87349 21.1173 10.5294C22.8336 11.9286 24.0032 13.6914 24.5975 15.8323C24.9821 17.2155 25.1124 18.6274 24.8454 20.0266C24.5499 21.575 23.7346 22.8265 22.3791 23.7238C21.2889 24.4448 20.1145 24.7466 18.8384 24.6243C17.4829 24.4941 16.2736 23.9906 15.3264 22.9742C15.007 22.6312 14.7035 22.2643 14.4524 21.8704C13.8803 20.9763 13.812 19.971 13.9041 18.9435C13.9105 18.8672 13.9502 18.7894 13.9454 18.7148C13.9375 18.602 13.9025 18.4908 13.8644 18.3098C13.6006 18.5893 13.3702 18.8291 13.1461 19.0737C12.5963 19.6756 12.048 20.2791 11.5029 20.8858C11.1724 21.2526 10.8625 21.6402 10.5192 21.9927C10.4016 22.1118 10.2062 22.1547 9.97415 22.2675C9.95826 19.9011 11.1597 18.4956 13.1191 17.5999C13.1064 17.5649 13.0921 17.53 13.0794 17.4951C11.4584 17.5602 9.8359 17.6269 8.21496 17.692C8.19112 17.6491 8.16888 17.6062 8.14504 17.5634C8.3262 17.3601 8.47717 17.1123 8.69488 16.9599C9.44814 16.4278 10.2872 16.0657 11.2185 16.0752C11.8001 16.0816 12.3801 16.2309 12.9618 16.3151C13.1095 16.3373 13.2573 16.3564 13.4337 16.3055C12.2578 15.2176 11.0834 14.1298 9.90741 13.0419C9.94237 13.0006 9.97574 12.9593 10.0107 12.918C12.2228 13.0625 13.7277 14.1885 14.5779 16.4135C15.158 14.4077 16.4325 13.269 18.3617 12.8894C18.705 12.8211 19.1054 12.6544 19.4614 13.0959C18.3061 14.1313 17.146 15.17 15.9859 16.2087C15.9907 16.2341 15.9939 16.2595 15.9986 16.2849C16.4484 16.2261 16.8981 16.1372 17.3494 16.1181C17.8309 16.0975 18.3283 16.08 18.7939 16.1769C19.2469 16.2722 19.695 16.4675 20.0955 16.7042C20.4959 16.9424 20.8328 17.2854 21.1983 17.5824L21.1427 17.7206C19.5218 17.6475 17.9008 17.5729 16.2799 17.4998C17.1094 18.0636 17.8849 18.602 18.3967 19.52C18.8941 20.4125 19.1483 21.313 19.1674 22.3024C19.1324 22.3278 19.0991 22.3548 19.0641 22.3802C17.7801 21.0065 16.496 19.6343 15.2104 18.2606C15.1786 18.2701 15.1453 18.2796 15.1135 18.2891C15.1135 18.6782 15.0817 19.0689 15.1198 19.4533C15.1961 20.2299 15.3789 20.97 15.8858 21.6084C16.5644 22.4628 17.3971 23.0584 18.4745 23.2601C20.0764 23.5602 21.4367 23.06 22.538 21.8927C23.1768 21.2161 23.5328 20.3903 23.6027 19.4437C23.7108 17.9604 23.5503 16.5247 22.9766 15.1414C22.333 13.5898 21.3509 12.3129 20.0081 11.2949C18.91 10.4611 17.6879 9.92113 16.353 9.63844C15.3582 9.42722 14.3554 9.40181 13.332 9.54315C11.2153 9.83537 9.46244 10.828 7.97182 12.2843C7.18837 13.0498 6.59561 13.9852 6.16972 15.0191C5.3227 17.0758 5.24325 19.1722 5.836 21.2892C6.02034 21.9467 6.37472 22.5597 6.67666 23.1791C6.82286 23.4792 7.11686 23.3395 7.35046 23.3093C7.48713 23.2918 7.6238 23.2283 7.74616 23.16C8.56298 22.7026 9.35279 22.863 10.1394 23.2474C10.6893 23.5142 11.2057 23.268 11.7 23.0806C12.636 22.7249 13.5704 22.9027 14.2887 23.6238C14.5191 23.854 14.7734 24.0605 15.007 24.2892C15.0722 24.3527 15.0992 24.4528 15.1675 24.5814L15.1659 24.5798Z" fill="url(#paint3_linear_20_100)"/>
<path d="M23.1258 25.3297C22.827 25.8316 22.5362 26.3382 22.22 26.8289C22.1723 26.902 22.0022 26.9417 21.8989 26.9274C21.5001 26.8686 21.0662 26.8591 20.715 26.6892C20.0968 26.389 19.5216 26.4684 18.9558 26.7305C18.2201 27.0719 17.5256 26.9512 16.8391 26.6304C16.4307 26.4398 16.0127 26.4192 15.6409 26.6272C14.8733 27.056 14.0962 27.0417 13.3382 26.6987C12.7693 26.4414 12.2528 26.4891 11.7141 26.7193C10.9449 27.0465 10.1933 27.0227 9.44794 26.6288C9.0729 26.4303 8.66449 26.4573 8.27038 26.5732C8.06061 26.6352 7.86832 26.7559 7.66173 26.8289C7.14049 27.0131 6.94503 26.929 6.65262 26.4414C6.44762 26.1 6.22514 25.768 6.00902 25.4313C6.03444 25.398 6.06146 25.3662 6.08688 25.3329C6.20607 25.3853 6.34115 25.4155 6.44127 25.4917C6.9196 25.849 7.40747 25.6442 7.82224 25.4345C8.54372 25.0692 9.24612 25.1058 9.91515 25.4425C10.4618 25.7188 10.9513 25.6759 11.4487 25.4266C12.1447 25.0772 12.8408 25.0835 13.5257 25.3996C14.0311 25.633 14.5412 25.7379 15.029 25.4695C15.6361 25.1359 16.2575 25.1232 16.8963 25.2551C17.1283 25.3027 17.3397 25.4536 17.5622 25.552C18.0389 25.7664 18.5093 25.6378 18.9272 25.4282C19.6598 25.0613 20.3638 25.0804 21.0646 25.4536C21.5525 25.7124 22.0118 25.7204 22.4869 25.4393C22.6474 25.344 22.8286 25.2852 23.0002 25.209C23.0415 25.2487 23.0829 25.2884 23.1242 25.3297H23.1258Z" fill="#E8D670"/>
<path d="M7.59525 27.8481C8.43114 27.405 9.21618 27.4559 9.99327 27.8068C10.4351 28.007 10.8355 28.026 11.2884 27.8068C11.6412 27.6369 12.0528 27.4781 12.4294 27.4987C12.911 27.5242 13.3813 27.7338 13.8565 27.8656C14.2411 27.972 14.6082 28.0165 14.9927 27.81C15.8334 27.359 16.6979 27.3796 17.5338 27.8227C17.9613 28.0498 18.357 28.0022 18.7559 27.8084C19.6633 27.3685 20.5373 27.4098 21.4558 27.9625C21.2206 28.2849 21.0061 28.5914 20.7741 28.8836C20.7328 28.9344 20.5882 28.963 20.5278 28.9313C19.9636 28.6359 19.4551 28.8407 18.9513 29.0885C18.2569 29.4299 17.5624 29.314 16.9236 28.9916C16.477 28.7661 16.0686 28.7359 15.6538 28.9487C14.8179 29.3759 13.9932 29.3648 13.1652 28.9567C12.7187 28.7375 12.3262 28.7566 11.8589 28.9868C11.0596 29.3791 10.2221 29.3823 9.4037 28.9503C9.20347 28.8455 8.95079 28.7597 8.73467 28.782C8.34374 28.8217 8.11331 28.674 7.9385 28.3516C7.85269 28.1928 7.73509 28.0514 7.59525 27.8481Z" fill="#E8D670"/>
<path d="M9.23825 29.7952C9.40034 29.8667 9.57038 29.9254 9.72135 30.0144C10.1774 30.2796 10.6256 30.4717 11.1643 30.2018C12.0034 29.7825 12.8615 29.6983 13.726 30.1493C14.1948 30.3939 14.6525 30.3606 15.1213 30.1096C15.8682 29.7094 16.6342 29.7174 17.3779 30.1128C17.942 30.413 18.4601 30.3145 18.9909 30.035C19.2006 29.9254 19.4422 29.8762 19.7537 29.7729C19.7044 29.9635 19.7108 30.0747 19.6583 30.1223C19.1371 30.5988 18.6222 31.0816 18.0692 31.5183C17.942 31.6184 17.6719 31.5835 17.4812 31.5437C17.2682 31.4977 17.0664 31.3818 16.8678 31.2817C16.4339 31.0625 16.0239 31.1038 15.5806 31.2896C15.2023 31.4469 14.7876 31.5771 14.3839 31.5882C14.028 31.5977 13.6434 31.4786 13.3144 31.323C12.7773 31.0689 12.2783 31.0101 11.7555 31.3278C11.5902 31.4278 11.4074 31.5406 11.2247 31.558C11.1023 31.5692 10.9498 31.4405 10.8353 31.3452C10.3268 30.9228 9.82465 30.4892 9.32247 30.0572C9.26844 30.0096 9.2303 29.9429 9.18422 29.8857C9.2017 29.8555 9.21918 29.8269 9.23666 29.7968L9.23825 29.7952Z" fill="#E8D670"/>
<path d="M12.5855 31.9204C12.9891 32.0602 13.3959 32.1888 13.7932 32.3444C14.2175 32.5112 14.6053 32.5414 15.0264 32.2952C15.6223 31.9474 16.2818 31.9395 16.9429 32.0808C17.0033 32.0935 17.086 32.165 17.0923 32.2158C17.0987 32.273 17.043 32.3603 16.989 32.3969C16.4948 32.7351 15.991 33.0607 15.4984 33.4006C14.9263 33.796 14.332 33.8707 13.7344 33.4927C13.1989 33.1544 12.6824 32.786 12.1691 32.4159C12.104 32.3699 12.0722 32.2301 12.0849 32.1412C12.0928 32.0872 12.2073 32.0268 12.2835 32.0062C12.3694 31.9823 12.4679 32.0014 12.5601 32.0014C12.5696 31.9744 12.5775 31.9474 12.5871 31.9204H12.5855Z" fill="#E8D670"/>
<defs>
<linearGradient id="paint0_linear_20_100" x1="5.19413" y1="-2.39978" x2="4.78147" y2="35.4762" gradientUnits="userSpaceOnUse">
<stop stop-color="#D7C45C"/>
<stop offset="1" stop-color="#F9E885"/>
</linearGradient>
<linearGradient id="paint1_linear_20_100" x1="12.2564" y1="-2.32345" x2="11.8438" y2="35.5526" gradientUnits="userSpaceOnUse">
<stop stop-color="#D7C45C"/>
<stop offset="1" stop-color="#F9E885"/>
</linearGradient>
<linearGradient id="paint2_linear_20_100" x1="4.59183" y1="-2.40593" x2="4.18075" y2="35.4701" gradientUnits="userSpaceOnUse">
<stop stop-color="#D7C45C"/>
<stop offset="1" stop-color="#F9E885"/>
</linearGradient>
<linearGradient id="paint3_linear_20_100" x1="14.7956" y1="-2.29657" x2="14.3846" y2="35.581" gradientUnits="userSpaceOnUse">
<stop stop-color="#D7C45C"/>
<stop offset="1" stop-color="#F9E885"/>
</linearGradient>
</defs>
</svg>
