<svg width="16" height="16" viewBox="-10 -10 36 37" fill="none" xmlns="http://www.w3.org/2000/svg" style="background-color: white;">
<path d="M7.80483 12.4002C8.45146 12.4002 8.97565 11.8629 8.97565 11.2001C8.97565 10.5373 8.45146 10 7.80483 10C7.1582 10 6.634 10.5373 6.634 11.2001C6.634 11.8629 7.1582 12.4002 7.80483 12.4002Z" fill="#EB6B2A"/>
<path d="M10.9269 10.4002C11.5736 10.4002 12.0978 9.86288 12.0978 9.20009C12.0978 8.5373 11.5736 8 10.9269 8C10.2803 8 9.7561 8.5373 9.7561 9.20009C9.7561 9.86288 10.2803 10.4002 10.9269 10.4002Z" fill="#EB6B2A"/>
<path d="M14.8292 8.39969C15.4758 8.39969 16 7.86239 16 7.1996C16 6.53681 15.4758 5.99951 14.8292 5.99951C14.1826 5.99951 13.6584 6.53681 13.6584 7.1996C13.6584 7.86239 14.1826 8.39969 14.8292 8.39969Z" fill="#EB6B2A"/>
<path d="M13.6587 12.4002C14.3053 12.4002 14.8295 11.8629 14.8295 11.2001C14.8295 10.5373 14.3053 10 13.6587 10C13.012 10 12.4878 10.5373 12.4878 11.2001C12.4878 11.8629 13.012 12.4002 13.6587 12.4002Z" fill="#EB6B2A"/>
<path d="M11.317 15.2C11.9636 15.2 12.4878 14.6627 12.4878 13.9999C12.4878 13.3371 11.9636 12.7998 11.317 12.7998C10.6703 12.7998 10.1461 13.3371 10.1461 13.9999C10.1461 14.6627 10.6703 15.2 11.317 15.2Z" fill="#EB6B2A"/>
<path d="M7.80483 16.0003C8.45146 16.0003 8.97565 15.463 8.97565 14.8002C8.97565 14.1374 8.45146 13.6001 7.80483 13.6001C7.1582 13.6001 6.634 14.1374 6.634 14.8002C6.634 15.463 7.1582 16.0003 7.80483 16.0003Z" fill="#EB6B2A"/>
<path d="M4.29263 15.2C4.93926 15.2 5.46346 14.6627 5.46346 13.9999C5.46346 13.3371 4.93926 12.7998 4.29263 12.7998C3.646 12.7998 3.1218 13.3371 3.1218 13.9999C3.1218 14.6627 3.646 15.2 4.29263 15.2Z" fill="#EB6B2A"/>
<path d="M1.5609 12.4002C2.20754 12.4002 2.73173 11.8629 2.73173 11.2001C2.73173 10.5373 2.20754 10 1.5609 10C0.914273 10 0.390076 10.5373 0.390076 11.2001C0.390076 11.8629 0.914273 12.4002 1.5609 12.4002Z" fill="#EB6B2A"/>
<path d="M4.68304 10.4002C5.32967 10.4002 5.85386 9.86288 5.85386 9.20009C5.85386 8.5373 5.32967 8 4.68304 8C4.0364 8 3.51221 8.5373 3.51221 9.20009C3.51221 9.86288 4.0364 10.4002 4.68304 10.4002Z" fill="#EB6B2A"/>
<path d="M7.80483 8.80056C8.45146 8.80056 8.97565 8.26327 8.97565 7.60048C8.97565 6.93769 8.45146 6.40039 7.80483 6.40039C7.1582 6.40039 6.634 6.93769 6.634 7.60048C6.634 8.26327 7.1582 8.80056 7.80483 8.80056Z" fill="#EB6B2A"/>
<path d="M10.9269 6.80008C11.5736 6.80008 12.0978 6.26278 12.0978 5.59999C12.0978 4.9372 11.5736 4.3999 10.9269 4.3999C10.2803 4.3999 9.7561 4.9372 9.7561 5.59999C9.7561 6.26278 10.2803 6.80008 10.9269 6.80008Z" fill="#EB6B2A"/>
<path d="M7.8048 4.8001C8.23583 4.8001 8.58525 4.44195 8.58525 4.00015C8.58525 3.55835 8.23583 3.2002 7.8048 3.2002C7.37377 3.2002 7.02435 3.55835 7.02435 4.00015C7.02435 4.44195 7.37377 4.8001 7.8048 4.8001Z" fill="#EB6B2A"/>
<path d="M4.68301 6.39971C5.11404 6.39971 5.46346 6.04156 5.46346 5.59976C5.46346 5.15796 5.11404 4.7998 4.68301 4.7998C4.25198 4.7998 3.90256 5.15796 3.90256 5.59976C3.90256 6.04156 4.25198 6.39971 4.68301 6.39971Z" fill="#EB6B2A"/>
<path d="M0.780453 8.0003C1.21148 8.0003 1.56091 7.64214 1.56091 7.20034C1.56091 6.75854 1.21148 6.40039 0.780453 6.40039C0.349422 6.40039 0 6.75854 0 7.20034C0 7.64214 0.349422 8.0003 0.780453 8.0003Z" fill="#EB6B2A"/>
<path d="M1.36602 4.39997C1.68925 4.39997 1.95128 4.13139 1.95128 3.80008C1.95128 3.46877 1.68925 3.2002 1.36602 3.2002C1.04279 3.2002 0.780762 3.46877 0.780762 3.80008C0.780762 4.13139 1.04279 4.39997 1.36602 4.39997Z" fill="#EB6B2A"/>
<path d="M4.29264 1.60056C4.50824 1.60056 4.68301 1.42142 4.68301 1.20043C4.68301 0.979439 4.50824 0.800293 4.29264 0.800293C4.07704 0.800293 3.90225 0.979439 3.90225 1.20043C3.90225 1.42142 4.07704 1.60056 4.29264 1.60056Z" fill="#EB6B2A"/>
<path d="M7.80484 0.800269C8.02044 0.800269 8.19521 0.621122 8.19521 0.400134C8.19521 0.179146 8.02044 0 7.80484 0C7.58924 0 7.41446 0.179146 7.41446 0.400134C7.41446 0.621122 7.58924 0.800269 7.80484 0.800269Z" fill="#EB6B2A"/>
<path d="M13.6587 5.19998C14.3053 5.19998 14.8295 4.66268 14.8295 3.99989C14.8295 3.3371 14.3053 2.7998 13.6587 2.7998C13.012 2.7998 12.4878 3.3371 12.4878 3.99989C12.4878 4.66268 13.012 5.19998 13.6587 5.19998Z" fill="#EB6B2A"/>
<path d="M11.317 2.40017C11.9636 2.40017 12.4878 1.86288 12.4878 1.20009C12.4878 0.537297 11.9636 0 11.317 0C10.6703 0 10.1461 0.537297 10.1461 1.20009C10.1461 1.86288 10.6703 2.40017 11.317 2.40017Z" fill="#EB6B2A"/>
</svg>
